# xmcd
#
# Track frame offsets:
#	150
#	12961
#	27874
#	43505
#	63785
#	81455
#	93125
#	109080
#	122518
#	136680
#	151320
#	169477
#	183152
#	200991
#	212896
#	224661
#	235811
#	245479
#	255812
#	268674
#	284187
#	294651
#	306494
#	318218
#	331205
#	342100
#
# Disc length: 4766 seconds
#
# Revision: 1
# Processed by: cddbd v1.5.2PL0 Copyright (c) Steve Scherf et al.
# Submitted via: audiograbber 1.83.01
#
DISCID=82129c1a
DTITLE=Joe Dassin - Forever Best!
DYEAR=1900
DGENRE=
TTITLE0=A Toi
TTITLE1=Salut
TTITLE2=Et Si Tu N`existais Pas
TTITLE3=L`ete Indien
TTITLE4=Il Etait Une Fois Nous Deux
TTITLE5=Taka Takata
TTITLE6=La Dernier Show
TTITLE7=C`est La Vie Lily
TTITLE8=L`equipe A Jojo
TTITLE9=Si Tu T`appelles Melancolie
TTITLE10=Salut Les Amoureux
TTITLE11=Ca Va Pas Changer Le Monde
TTITLE12=Le Cafe Des 3 Colombes
TTITLE13=Les Champs Elysees
TTITLE14=Siffler Sur La Colline
TTITLE15=Le Chemin De Papa
TTITLE16=La Fleur Aux Dents
TTITLE17=Le Moustique
TTITLE18=La Bande A Bonnot
TTITLE19=Petit Pain Au Chocolat
TTITLE20=Un Cadeau De Papa
TTITLE21=Les Dalton
TTITLE22=Me Que Me Que
TTITLE23=Guantanamera
TTITLE24=L`Amerique
TTITLE25=Taka Takata (remix latino)
EXTD=
EXTT0=
EXTT1=
EXTT2=
EXTT3=
EXTT4=
EXTT5=
EXTT6=
EXTT7=
EXTT8=
EXTT9=
EXTT10=
EXTT11=
EXTT12=
EXTT13=
EXTT14=
EXTT15=
EXTT16=
EXTT17=
EXTT18=
EXTT19=
EXTT20=
EXTT21=
EXTT22=
EXTT23=
EXTT24=
EXTT25=
PLAYORDER=
